# xmcd CD database file
#
# Track frame offsets:
#	150
#	17637
#	31439
#	48904
#	65865
#	82197
#	96313
#	110296
#	126981
#	145038
#	163448
#	177591
#	194596
#	215535
#	234119
#	252959
#	270959
#	288153
#	302927
#	322380
#
# Disc length: 4504 seconds
#
# Revision: 0
# Processed by: cddbd v1.5.2PL0 Copyright (c) Steve Scherf et al.
# Submitted via: CDex 1.70beta2
#
DISCID=33119614
DTITLE=Misc - Salsa Mania
DYEAR=1900
DGENRE=Salsa
TTITLE0=La grande de Siempre - Amiga
TTITLE1=Havana City - Por eso ella está conmigo
TTITLE2=La Puertorriquena - Tu Música popular
TTITLE3=Pedro Arroyo - Cuando quierras dónde quierras
TTITLE4=Nino segarra - La vida es asi
TTITLE5=Mariano Civico - Amor Mío
TTITLE6=Sonora Poncena - Caprichosa
TTITLE7=Joe Cuba - Yo loco loco
TTITLE8=Rey Ruiz - A mi manera
TTITLE9=Grupo Niche - Duele Más
TTITLE10=Cuco Valoy - Mi suerte
TTITLE11=Guayacán and Jr.Jein - Son cepillao
TTITLE12=Andy Montanez - Hay que ver
TTITLE13=Orquestra la sensatión - El Cantante
TTITLE14=Domingo - Rumba
TTITLE15=José Alberto "El Canario" - Amor Improvisado
TTITLE16=Willie Sotelo y la Mundial - La cuenta
TTITLE17=Orquestra Antifaz - Salsero de Corazón
TTITLE18=Roberto Roena and Apollo Sound - Bongo
TTITLE19=Roberto Torres - No Aprietes tanto
EXTD=
EXTT0=
EXTT1=
EXTT2=
EXTT3=
EXTT4=
EXTT5=
EXTT6=
EXTT7=
EXTT8=
EXTT9=
EXTT10=
EXTT11=
EXTT12=
EXTT13=
EXTT14=
EXTT15=
EXTT16=
EXTT17=
EXTT18=
EXTT19=
PLAYORDER=
